<svg width="27" height="26" viewBox="0 0 27 26" fill="none" xmlns="http://www.w3.org/2000/svg">
<path d="M14.5104 6.75H11.9062V11.75H6.69792V14.25H11.9062V19.25H14.5104V14.25H19.7187V11.75H14.5104V6.75ZM13.2083 0.5C6.02083 0.5 0.1875 6.1 0.1875 13C0.1875 19.9 6.02083 25.5 13.2083 25.5C20.3958 25.5 26.2292 19.9 26.2292 13C26.2292 6.1 20.3958 0.5 13.2083 0.5ZM13.2083 23C7.46615 23 2.79167 18.5125 2.79167 13C2.79167 7.4875 7.46615 3 13.2083 3C18.9505 3 23.625 7.4875 23.625 13C23.625 18.5125 18.9505 23 13.2083 23Z" fill="white"/>
</svg>
