<svg width="20" height="20" viewBox="0 0 20 20" fill="none" xmlns="http://www.w3.org/2000/svg">
<g clip-path="url(#clip0_258_179)">
<path d="M12.3999 11.6667H11.7679L11.5439 11.4417C12.3279 10.4917 12.7999 9.25833 12.7999 7.91667C12.7999 4.925 10.4719 2.5 7.5999 2.5C4.7279 2.5 2.3999 4.925 2.3999 7.91667C2.3999 10.9083 4.7279 13.3333 7.5999 13.3333C8.8879 13.3333 10.0719 12.8417 10.9839 12.025L11.1999 12.2583V12.9167L15.1999 17.075L16.3919 15.8333L12.3999 11.6667ZM7.5999 11.6667C5.6079 11.6667 3.9999 9.99167 3.9999 7.91667C3.9999 5.84167 5.6079 4.16667 7.5999 4.16667C9.5919 4.16667 11.1999 5.84167 11.1999 7.91667C11.1999 9.99167 9.5919 11.6667 7.5999 11.6667Z" fill="white"/>
</g>
<defs>
<clipPath id="clip0_258_179">
<rect width="19.2" height="20" fill="white"/>
</clipPath>
</defs>
</svg>
